<svg width="248" height="56" viewBox="0 0 248 56" fill="none" xmlns="http://www.w3.org/2000/svg">
<path fill-rule="evenodd" clip-rule="evenodd" d="M19 0C15.8156 0 13.2517 0.766313 11 3L0 14V19C0 22.4856 1.59439 25.8219 4 28C1.59439 30.1781 0 33.5144 0 37V42L11 53C13.2517 55.2337 15.8156 56 19 56C22.5136 56 25.8043 54.3864 28 52C30.1957 54.3864 33.4864 56 37 56C40.1844 56 43.7483 55.2337 46 53L56 42V37C56 33.5144 55.4057 30.1781 53 28C55.4057 25.8219 56 22.4856 56 19V14L46 3C43.7483 0.766313 40.1844 0 37 0C33.4864 0 30.1957 1.6136 28 4C25.8043 1.6136 22.5136 0 19 0ZM36 28C36.1301 28.1291 35.8647 27.8775 36 28L28 20L20 28C20.1353 27.8775 19.8699 28.1291 20 28C19.8699 27.8709 20.1353 28.1225 20 28L28 36L36 28C35.8647 28.1225 36.1301 27.8709 36 28ZM31 42V44C31 47.1416 33.8331 50 37 50C38.5208 50 39.9246 49.0668 41 48L50 39V37C50 33.8584 47.1669 31 44 31C42.4792 31 41.0754 31.9332 40 33L31 42ZM25 42L16 33C14.9246 31.9332 13.5208 31 12 31C8.83306 31 6 33.8584 6 37V39L15 48C16.0754 49.0668 17.4792 50 19 50C22.1669 50 25 47.1416 25 44V42ZM25 12V14L16 23C14.9246 24.0668 13.5208 25 12 25C8.83306 25 6 22.1416 6 19V17L15 8C16.0754 6.93321 17.4792 6 19 6C22.1669 6 25 8.85836 25 12ZM40 23L31 14V12C31 8.85836 33.8331 6 37 6C38.5208 6 39.9246 6.93321 41 8L50 17V19C50 22.1416 47.1669 25 44 25C42.4792 25 41.0754 24.0668 40 23Z" fill="#E0B100"/>
<path d="M70 41V16H75V37H85V41H70Z" fill="#E0B100"/>
<path d="M97 41C95.1477 41 94.3471 40.7636 93 40C91.6609 39.2284 89.7217 38.408 89 37C88.2783 35.5841 88 33.917 88 32C88 30.1148 88.2783 28.4239 89 27C89.7297 25.5682 91.693 23.7955 93 23C94.307 22.1966 95.2359 22 97 22C98.1386 22 98.9897 22.6341 100 23C101.018 23.358 102.222 23.2443 103 24C103.786 24.7557 104.551 25.8307 105 27C105.449 28.1614 106 29.3932 106 31V33H90V30H101C100.992 29.1727 101.353 27.6443 101 27C100.647 26.3477 99.6335 26.3739 99 26C98.3746 25.6261 97.8339 25 97 25C96.1099 25 95.6736 25.5705 95 26C94.3264 26.4216 93.3769 27.308 93 28C92.6311 28.6841 93.008 29.1807 93 30V33C93 34.0659 92.6071 34.2364 93 35C93.3929 35.7557 94.2944 36.5943 95 37C95.7056 37.3977 96.0538 38 97 38C97.6335 38 98.4868 37.175 99 37C99.5132 36.817 99.6231 37.35 100 37C100.377 36.65 100.808 35.517 101 35L105 36C104.743 37.0659 104.722 37.2045 104 38C103.286 38.7875 102.115 39.5625 101 40C99.8854 40.4295 98.4353 41 97 41Z" fill="#E0B100"/>
<path d="M118 22V26H108V22H118ZM110 18H115V35C115 35.5807 114.824 35.6898 115 36C115.184 36.3023 115.703 36.8886 116 37C116.297 37.1114 116.639 37 117 37C117.273 37 117.775 37.0398 118 37C117.88 37.0318 118.233 36.9602 118 37L119 40C118.767 40.0795 118.433 40.9045 118 41C117.575 41.0955 116.617 40.9841 116 41C114.909 41.0318 113.874 40.358 113 40C112.126 39.6341 111.513 39.7636 111 39C110.495 38.2364 109.992 37.1455 110 36V18Z" fill="#E0B100"/>
<path d="M127 16V19C127 19.7 126.273 20.2443 126 21C125.735 21.7477 125.465 22.3159 125 23C124.535 23.6761 124.593 24.5148 124 25L122 23C122.441 22.3398 122.671 21.7636 123 21C123.329 20.2284 123 19.9705 123 19V16H127Z" fill="#E0B100"/>
<path d="M142 27L138 28C137.888 27.6023 138.281 26.35 138 26C137.727 25.65 137.465 26.2148 137 26C136.535 25.7852 135.674 25 135 25C134.094 25 133.617 25.6102 133 26C132.391 26.3898 131.992 26.3795 132 27C131.992 27.533 131.599 28.6659 132 29C132.409 29.3341 133.062 28.7852 134 29L138 30C139.748 30.3739 140.15 31.1886 141 32C141.858 32.8114 142.992 33.6875 143 35C142.992 36.1534 142.674 37.117 142 38C141.334 38.875 140.187 39.5068 139 40C137.813 40.4932 136.54 41 135 41C132.739 41 130.379 40.9386 129 40C127.621 39.0534 127.265 37.6864 127 36L131 35C131.192 35.8273 131.375 36.5784 132 37C132.625 37.4216 133.998 38 135 38C136.034 38 136.375 37.4216 137 37C137.633 36.5784 138 36.6205 138 36C138 35.475 138.409 34.342 138 34C137.599 33.658 136.85 33.183 136 33H133C131.228 32.6341 129.85 31.867 129 31C128.15 30.125 126.992 29.3364 127 28C126.992 26.8705 127.375 25.8273 128 25C128.633 24.1648 129.877 23.4534 131 23C132.131 22.5386 133.525 22 135 22C137.165 22 138.757 22.0852 140 23C141.251 23.9148 141.703 25.4409 142 27Z" fill="#E0B100"/>
<path d="M147 41V16H156C157.78 16 158.821 16.4432 160 17C161.187 17.5489 162.415 18.0455 163 19C163.593 19.9545 164 20.7909 164 22C164 22.9943 163.385 24.292 163 25C162.615 25.7 162.65 26.5625 162 27C161.35 27.4375 160.802 27.8091 160 28C160.874 28.0477 161.198 28.5148 162 29C162.81 29.4773 163.487 30.125 164 31C164.513 31.875 165 32.7591 165 34C165 35.2648 164.617 35.9898 164 37C163.383 38.0023 162.243 39.4193 161 40C159.757 40.5807 158.884 41 157 41H147ZM151 37H156C157.62 37 158.286 36.6125 159 36C159.722 35.3795 160 34.9705 160 34C160 33.2761 160.361 32.5807 160 32C159.639 31.4114 158.666 30.3341 158 30C157.334 29.658 156.922 30 156 30H151V37ZM151 27H155C155.77 27 157.383 26.2784 158 26C158.617 25.7136 158.647 25.517 159 25C159.361 24.475 160 23.7159 160 23C160 22.0534 159.674 21.6125 159 21C158.334 20.3875 157.315 20 156 20H151V27Z" fill="#E0B100"/>
<path d="M177 41C175.196 41 173.323 40.7875 172 40C170.677 39.2125 169.73 37.4159 169 36C168.278 34.5841 168 33.8932 168 32C168 30.1068 168.278 28.4239 169 27C169.73 25.5761 170.677 23.7875 172 23C173.323 22.2125 175.196 22 177 22C178.804 22 179.677 22.2125 181 23C182.323 23.7875 183.278 25.5761 184 27C184.73 28.4239 186 30.1068 186 32C186 33.8932 184.73 34.5841 184 36C183.278 37.4159 182.323 39.2125 181 40C179.677 40.7875 178.804 41 177 41ZM177 37C177.978 37 178.342 37.533 179 37C179.658 36.4591 180.679 35.9068 181 35C181.329 34.0932 181 32.1136 181 31C181 29.8784 181.329 28.9068 181 28C180.679 27.0852 179.658 26.5409 179 26C178.342 25.4591 177.978 25 177 25C175.998 25 174.666 25.4591 174 26C173.342 26.5409 173.329 27.0852 173 28C172.679 28.9068 172 29.8784 172 31C172 32.1136 172.679 34.0932 173 35C173.329 35.9068 173.342 36.4591 174 37C174.666 37.533 175.998 37 177 37Z" fill="#E0B100"/>
<path d="M197 41C195.196 41 194.323 40.7875 193 40C191.677 39.2125 190.73 37.4159 190 36C189.278 34.5841 188 33.8932 188 32C188 30.1068 189.278 28.4239 190 27C190.73 25.5761 191.677 23.7875 193 23C194.323 22.2125 195.196 22 197 22C198.804 22 200.677 22.2125 202 23C203.323 23.7875 204.278 25.5761 205 27C205.73 28.4239 206 30.1068 206 32C206 33.8932 205.73 34.5841 205 36C204.278 37.4159 203.323 39.2125 202 40C200.677 40.7875 198.804 41 197 41ZM197 37C197.978 37 199.342 37.533 200 37C200.658 36.4591 200.679 35.9068 201 35C201.329 34.0932 202 32.1136 202 31C202 29.8784 201.329 28.9068 201 28C200.679 27.0852 200.658 26.5409 200 26C199.342 25.4591 197.978 25 197 25C195.998 25 195.666 25.4591 195 26C194.342 26.5409 193.329 27.0852 193 28C192.679 28.9068 193 29.8784 193 31C193 32.1136 192.679 34.0932 193 35C193.329 35.9068 194.342 36.4591 195 37C195.666 37.533 195.998 37 197 37Z" fill="#E0B100"/>
<path d="M214 35V30H215L221 22H226L218 31H217L214 35ZM210 41V16H214V41H210ZM221 41L215 32L218 29L227 41H221Z" fill="#E0B100"/>
<path d="M234 16V41H229V16H234Z" fill="#E0B100"/>
<path d="M248 22V26H237V22H248ZM240 18H244V35C244 35.5807 243.824 35.6898 244 36C244.184 36.3023 244.703 36.8886 245 37C245.297 37.1114 245.639 37 246 37C246.273 37 246.775 37.0398 247 37C246.88 37.0318 247.233 36.9602 247 37L248 40C247.767 40.0795 247.433 40.9045 247 41C246.575 41.0955 245.617 40.9841 245 41C243.909 41.0318 242.874 40.358 242 40C241.126 39.6341 240.513 39.7636 240 39C239.495 38.2364 239.992 37.1455 240 36V18Z" fill="#E0B100"/>
</svg>
