<svg xmlns="http://www.w3.org/2000/svg" width="32" height="32" viewBox="0 0 32 32" fill="none">
  <path d="M16.0001 2.66669C8.63619 2.66669 2.66675 8.63614 2.66675 16C2.66675 23.3639 8.63619 29.3334 16.0001 29.3334C23.364 29.3334 29.3334 23.3639 29.3334 16C29.3334 8.63614 23.364 2.66669 16.0001 2.66669ZM12.7362 21.5264H10.0362V12.8375H12.7362V21.5264ZM11.3695 11.7709C10.5167 11.7709 9.96536 11.1667 9.96536 10.4195C9.96536 9.65697 10.5334 9.07086 11.4042 9.07086C12.2751 9.07086 12.8084 9.65697 12.8251 10.4195C12.8251 11.1667 12.2751 11.7709 11.3695 11.7709ZM22.5973 21.5264H19.8973V16.7111C19.8973 15.5903 19.5056 14.8292 18.5292 14.8292C17.7834 14.8292 17.3404 15.3445 17.1445 15.8403C17.0723 16.0167 17.0542 16.2667 17.0542 16.5153V21.525H14.3529V15.6084C14.3529 14.5236 14.3181 13.6167 14.282 12.8361H16.6279L16.7515 14.0431H16.8056C17.1612 13.4764 18.032 12.6403 19.489 12.6403C21.2654 12.6403 22.5973 13.8306 22.5973 16.3889V21.5264Z" fill="#F5F5F5"/>
</svg>