<svg xmlns="http://www.w3.org/2000/svg" width="32" height="32" viewBox="0 0 32 32" fill="none">
  <path d="M16.0001 2.66669C8.63619 2.66669 2.66675 8.63614 2.66675 16C2.66675 23.3639 8.63619 29.3334 16.0001 29.3334C23.364 29.3334 29.3334 23.3639 29.3334 16C29.3334 8.63614 23.364 2.66669 16.0001 2.66669ZM21.4237 13.5889C21.4292 13.7028 21.4306 13.8167 21.4306 13.9278C21.4306 17.4 18.7904 21.4014 13.9598 21.4014C12.5324 21.4038 11.1348 20.9938 9.9348 20.2209C10.139 20.2459 10.3487 20.2556 10.5612 20.2556C11.7917 20.2556 12.9237 19.8375 13.8223 19.132C13.2747 19.1212 12.7441 18.9399 12.3044 18.6132C11.8647 18.2866 11.5379 17.8309 11.3695 17.3097C11.7628 17.3845 12.1679 17.3689 12.5542 17.2639C11.9599 17.1437 11.4254 16.8217 11.0413 16.3523C10.6573 15.883 10.4475 15.2953 10.4473 14.6889V14.657C10.8015 14.8528 11.207 14.9722 11.6376 14.9861C11.0804 14.6152 10.6859 14.0454 10.5349 13.3933C10.3838 12.7411 10.4877 12.0559 10.8251 11.4778C11.4847 12.2889 12.3074 12.9525 13.2398 13.4255C14.1721 13.8985 15.1934 14.1704 16.2376 14.2236C16.1048 13.6602 16.162 13.0686 16.4001 12.541C16.6382 12.0134 17.044 11.5792 17.5543 11.3059C18.0647 11.0327 18.651 10.9358 19.2222 11.0301C19.7933 11.1245 20.3173 11.4049 20.7126 11.8278C21.3003 11.7115 21.8639 11.4959 22.3792 11.1903C22.1834 11.7988 21.7732 12.3155 21.2251 12.6445C21.7457 12.5818 22.2541 12.4418 22.7334 12.2292C22.3813 12.7568 21.9378 13.2173 21.4237 13.5889Z" fill="#F5F5F5"/>
</svg>